<svg width="18" height="21" viewBox="0 0 18 21" fill="none" xmlns="http://www.w3.org/2000/svg">
<path d="M9.13459 0.363636V20H4.98295V4.30433H4.8679L0.371094 7.12322V3.44141L5.23224 0.363636H9.13459ZM15.1727 20.2493C14.5399 20.2493 13.9965 20.0256 13.5427 19.5781C13.0953 19.1243 12.8715 18.581 12.8715 17.9482C12.8715 17.3217 13.0953 16.7848 13.5427 16.3374C13.9965 15.8899 14.5399 15.6662 15.1727 15.6662C15.7863 15.6662 16.3232 15.8899 16.7835 16.3374C17.2437 16.7848 17.4738 17.3217 17.4738 17.9482C17.4738 18.37 17.3651 18.7567 17.1478 19.1083C16.9369 19.4535 16.6588 19.7315 16.3137 19.9425C15.9685 20.147 15.5882 20.2493 15.1727 20.2493Z" fill="black"/>
</svg>
