<svg width="23" height="21" viewBox="0 0 23 21" fill="none" xmlns="http://www.w3.org/2000/svg">
<path d="M0.591619 20V17.0085L7.58132 10.5366C8.17578 9.96129 8.67436 9.44354 9.07706 8.98331C9.48615 8.52308 9.79617 8.07244 10.0071 7.63139C10.218 7.18395 10.3235 6.70135 10.3235 6.18359C10.3235 5.60831 10.1925 5.11293 9.9304 4.69744C9.66832 4.27557 9.31037 3.95277 8.85653 3.72905C8.4027 3.49893 7.88814 3.38388 7.31286 3.38388C6.712 3.38388 6.18786 3.50533 5.74041 3.74822C5.29297 3.99112 4.9478 4.33949 4.7049 4.79332C4.462 5.24716 4.34055 5.78729 4.34055 6.41371H0.399858C0.399858 5.12891 0.690696 4.01349 1.27237 3.06747C1.85405 2.12145 2.66903 1.38956 3.71733 0.871803C4.76563 0.354047 5.97372 0.0951697 7.34162 0.0951697C8.74787 0.0951697 9.97195 0.34446 11.0138 0.843039C12.0621 1.33523 12.8771 2.01918 13.4588 2.89489C14.0405 3.7706 14.3313 4.77415 14.3313 5.90554C14.3313 6.64702 14.1843 7.37891 13.8903 8.10121C13.6026 8.82351 13.0881 9.62571 12.3466 10.5078C11.6051 11.3835 10.56 12.435 9.21129 13.6623L6.34446 16.4716V16.6058H14.5902V20H0.591619ZM20.0242 20.2493C19.3914 20.2493 18.8481 20.0256 18.3943 19.5781C17.9468 19.1243 17.7231 18.581 17.7231 17.9482C17.7231 17.3217 17.9468 16.7848 18.3943 16.3374C18.8481 15.8899 19.3914 15.6662 20.0242 15.6662C20.6379 15.6662 21.1748 15.8899 21.635 16.3374C22.0953 16.7848 22.3254 17.3217 22.3254 17.9482C22.3254 18.37 22.2167 18.7567 21.9994 19.1083C21.7884 19.4535 21.5104 19.7315 21.1652 19.9425C20.82 20.147 20.4397 20.2493 20.0242 20.2493Z" fill="black"/>
</svg>
