<svg width="23" height="21" viewBox="0 0 23 21" fill="none" xmlns="http://www.w3.org/2000/svg">
<path d="M7.84979 20.2685C6.41797 20.2685 5.14276 20.0224 4.02415 19.5302C2.91193 19.0316 2.03303 18.3477 1.38743 17.4783C0.748224 16.6026 0.419034 15.5927 0.399858 14.4485H4.58026C4.60582 14.9279 4.76243 15.3498 5.05007 15.7141C5.34411 16.0721 5.73402 16.3501 6.21982 16.5483C6.70561 16.7464 7.25213 16.8455 7.85938 16.8455C8.49219 16.8455 9.05149 16.7337 9.53729 16.5099C10.0231 16.2862 10.4034 15.9762 10.6783 15.5799C10.9531 15.1836 11.0906 14.7266 11.0906 14.2088C11.0906 13.6847 10.9435 13.2212 10.6495 12.8185C10.3619 12.4094 9.94638 12.0898 9.40305 11.8597C8.86612 11.6296 8.22692 11.5146 7.48544 11.5146H5.65412V8.46555H7.48544C8.11186 8.46555 8.66477 8.35689 9.14418 8.13956C9.62997 7.92223 10.0071 7.6218 10.2756 7.23828C10.544 6.84837 10.6783 6.39453 10.6783 5.87678C10.6783 5.38459 10.56 4.95313 10.3235 4.58239C10.0934 4.20526 9.7674 3.91122 9.34553 3.70028C8.93004 3.48935 8.44425 3.38388 7.88814 3.38388C7.32564 3.38388 6.81108 3.48615 6.34446 3.6907C5.87784 3.88885 5.50391 4.17329 5.22266 4.54403C4.94141 4.91477 4.79119 5.34943 4.77202 5.84801H0.792969C0.812145 4.71662 1.13494 3.71946 1.76136 2.85653C2.38778 1.99361 3.23153 1.31925 4.29261 0.833451C5.36009 0.341263 6.56499 0.0951697 7.90732 0.0951697C9.26243 0.0951697 10.4482 0.341263 11.4645 0.833451C12.4808 1.32564 13.2702 1.99041 13.8327 2.82777C14.4016 3.65874 14.6829 4.59197 14.6765 5.62748C14.6829 6.72692 14.3409 7.64418 13.6506 8.37926C12.9666 9.11435 12.0749 9.58097 10.9755 9.77912V9.93253C12.4201 10.1179 13.5195 10.6197 14.2738 11.4379C15.0344 12.2496 15.4116 13.266 15.4052 14.4869C15.4116 15.6055 15.0888 16.5994 14.4368 17.4688C13.7912 18.3381 12.8995 19.022 11.7617 19.5206C10.6239 20.0192 9.31996 20.2685 7.84979 20.2685ZM20.2615 20.2493C19.6287 20.2493 19.0854 20.0256 18.6316 19.5781C18.1841 19.1243 17.9604 18.581 17.9604 17.9482C17.9604 17.3217 18.1841 16.7848 18.6316 16.3374C19.0854 15.8899 19.6287 15.6662 20.2615 15.6662C20.8752 15.6662 21.4121 15.8899 21.8723 16.3374C22.3326 16.7848 22.5627 17.3217 22.5627 17.9482C22.5627 18.37 22.454 18.7567 22.2367 19.1083C22.0257 19.4535 21.7477 19.7315 21.4025 19.9425C21.0574 20.147 20.677 20.2493 20.2615 20.2493Z" fill="black"/>
</svg>
