<svg width="24" height="21" viewBox="0 0 24 21" fill="none" xmlns="http://www.w3.org/2000/svg">
<path d="M0.294389 16.5483V13.2788L8.49219 0.363636H11.3111V4.8892H9.64276L4.47479 13.0678V13.2212H16.1243V16.5483H0.294389ZM9.71946 20V15.5511L9.79617 14.1033V0.363636H13.6889V20H9.71946ZM20.9471 20.2493C20.3143 20.2493 19.771 20.0256 19.3171 19.5781C18.8697 19.1243 18.646 18.581 18.646 17.9482C18.646 17.3217 18.8697 16.7848 19.3171 16.3374C19.771 15.8899 20.3143 15.6662 20.9471 15.6662C21.5607 15.6662 22.0977 15.8899 22.5579 16.3374C23.0181 16.7848 23.2482 17.3217 23.2482 17.9482C23.2482 18.37 23.1396 18.7567 22.9222 19.1083C22.7113 19.4535 22.4332 19.7315 22.0881 19.9425C21.7429 20.147 21.3626 20.2493 20.9471 20.2493Z" fill="black"/>
</svg>
