<svg width="129" height="33" viewBox="0 0 129 33" fill="none" xmlns="http://www.w3.org/2000/svg">
<path d="M29.9889 8.85127H31.7503V18.482C31.7503 19.4763 31.5159 20.3641 31.0472 21.1453C30.5832 21.9218 29.9274 22.535 29.0799 22.9848C28.2323 23.4299 27.238 23.6524 26.0969 23.6524C24.9558 23.6524 23.9615 23.4299 23.1139 22.9848C22.2664 22.535 21.6083 21.9218 21.1395 21.1453C20.6755 20.3641 20.4435 19.4763 20.4435 18.482V8.85127H22.2049V18.3399C22.2049 19.0501 22.3611 19.6822 22.6736 20.2362C22.9861 20.7855 23.4312 21.2187 24.0088 21.5359C24.5912 21.8484 25.2872 22.0047 26.0969 22.0047C26.9066 22.0047 27.6026 21.8484 28.185 21.5359C28.7674 21.2187 29.2124 20.7855 29.5202 20.2362C29.8327 19.6822 29.9889 19.0501 29.9889 18.3399V8.85127ZM35.0404 23.3967V12.4876H36.6598V14.1354H36.7734C36.9723 13.5956 37.3321 13.1576 37.8529 12.8214C38.3738 12.4853 38.9609 12.3172 39.6143 12.3172C39.7374 12.3172 39.8913 12.3195 40.076 12.3243C40.2606 12.329 40.4003 12.3361 40.495 12.3456V14.0501C40.4382 14.0359 40.308 14.0146 40.1044 13.9862C39.9055 13.9531 39.6948 13.9365 39.4723 13.9365C38.942 13.9365 38.4685 14.0478 38.0518 14.2703C37.6399 14.4881 37.3132 14.7911 37.0717 15.1794C36.8349 15.5629 36.7166 16.0009 36.7166 16.4933V23.3967H35.0404ZM46.5532 27.7149C45.7436 27.7149 45.0475 27.6107 44.4652 27.4024C43.8828 27.1988 43.3974 26.9289 43.0092 26.5928C42.6257 26.2613 42.3203 25.9062 42.093 25.5274L43.4282 24.5899C43.5797 24.7888 43.7715 25.016 44.0035 25.2717C44.2355 25.5321 44.5527 25.7571 44.9552 25.9464C45.3624 26.1406 45.8951 26.2376 46.5532 26.2376C47.4339 26.2376 48.1607 26.0246 48.7336 25.5984C49.3065 25.1723 49.593 24.5047 49.593 23.5956V21.3797H49.451C49.3278 21.5785 49.1527 21.8248 48.9254 22.1183C48.7028 22.4071 48.3809 22.6652 47.9595 22.8925C47.5428 23.115 46.9794 23.2263 46.2691 23.2263C45.3885 23.2263 44.5977 23.0179 43.897 22.6013C43.2009 22.1846 42.6493 21.5785 42.2421 20.7831C41.8397 19.9876 41.6384 19.0217 41.6384 17.8854C41.6384 16.7679 41.8349 15.7949 42.2279 14.9663C42.6209 14.133 43.1678 13.4891 43.8686 13.0345C44.5693 12.5752 45.379 12.3456 46.2975 12.3456C47.0078 12.3456 47.5712 12.464 47.9879 12.7007C48.4093 12.9327 48.7313 13.1979 48.9538 13.4962C49.1811 13.7897 49.3563 14.0312 49.4794 14.2206H49.6498V12.4876H51.2691V23.7092C51.2691 24.6467 51.0561 25.409 50.6299 25.9962C50.2085 26.588 49.6403 27.0213 48.9254 27.2959C48.2152 27.5752 47.4244 27.7149 46.5532 27.7149ZM46.4964 21.7206C47.1688 21.7206 47.7369 21.5667 48.201 21.2589C48.665 20.9512 49.0177 20.5085 49.2592 19.9308C49.5007 19.3532 49.6214 18.6619 49.6214 17.857C49.6214 17.071 49.503 16.3773 49.2663 15.776C49.0295 15.1747 48.6792 14.7035 48.2152 14.3626C47.7511 14.0217 47.1782 13.8513 46.4964 13.8513C45.7862 13.8513 45.1943 14.0312 44.7208 14.391C44.2521 14.7509 43.8993 15.2338 43.6626 15.8399C43.4306 16.446 43.3146 17.1183 43.3146 17.857C43.3146 18.6145 43.433 19.2845 43.6697 19.8669C43.9112 20.4446 44.2663 20.8991 44.735 21.2305C45.2085 21.5572 45.7956 21.7206 46.4964 21.7206ZM58.9112 23.624C57.86 23.624 56.9533 23.392 56.191 22.928C55.4334 22.4592 54.8487 21.8058 54.4367 20.9678C54.0295 20.1249 53.8259 19.1448 53.8259 18.0274C53.8259 16.91 54.0295 15.9251 54.4367 15.0729C54.8487 14.2159 55.4216 13.5482 56.1555 13.07C56.8941 12.5871 57.7559 12.3456 58.7407 12.3456C59.3089 12.3456 59.87 12.4403 60.424 12.6297C60.9779 12.8191 61.4822 13.1268 61.9367 13.553C62.3913 13.9744 62.7535 14.5331 63.0234 15.2291C63.2933 15.9251 63.4282 16.7821 63.4282 17.8001V18.5104H55.0191V17.0615H61.7237C61.7237 16.446 61.6006 15.8967 61.3544 15.4138C61.1129 14.9308 60.7672 14.5497 60.3174 14.2703C59.8724 13.991 59.3468 13.8513 58.7407 13.8513C58.0731 13.8513 57.4955 14.017 57.0078 14.3484C56.5248 14.6751 56.1531 15.1013 55.8927 15.6268C55.6323 16.1524 55.5021 16.7159 55.5021 17.3172V18.2831C55.5021 19.107 55.6441 19.8053 55.9282 20.3783C56.217 20.9464 56.6171 21.3797 57.1285 21.678C57.6399 21.9715 58.2341 22.1183 58.9112 22.1183C59.3515 22.1183 59.7492 22.0568 60.1044 21.9337C60.4642 21.8058 60.7743 21.6164 61.0348 21.3655C61.2952 21.1098 61.4964 20.7926 61.6385 20.4138L63.2578 20.8683C63.0873 21.4176 62.8009 21.9005 62.3984 22.3172C61.9959 22.7291 61.4988 23.0511 60.9069 23.2831C60.3151 23.5104 59.6498 23.624 58.9112 23.624ZM67.6541 16.8342V23.3967H65.9779V12.4876H67.5973V14.1922H67.7393C67.995 13.6382 68.3832 13.1931 68.9041 12.857C69.4249 12.516 70.0973 12.3456 70.9211 12.3456C71.6598 12.3456 72.3061 12.4971 72.86 12.8001C73.414 13.0984 73.8449 13.553 74.1527 14.1638C74.4604 14.7698 74.6143 15.5369 74.6143 16.4649V23.3967H72.9382V16.5785C72.9382 15.7215 72.7156 15.0539 72.2706 14.5757C71.8255 14.0928 71.2147 13.8513 70.4382 13.8513C69.9031 13.8513 69.4249 13.9673 69.0035 14.1993C68.5868 14.4313 68.2578 14.7698 68.0163 15.2149C67.7748 15.66 67.6541 16.1998 67.6541 16.8342ZM82.4215 12.4876V13.9081H76.7681V12.4876H82.4215ZM78.4158 9.874H80.0919V20.2717C80.0919 20.7452 80.1606 21.1003 80.2979 21.3371C80.4399 21.5691 80.6199 21.7253 80.8377 21.8058C81.0602 21.8816 81.2946 21.9195 81.5408 21.9195C81.7255 21.9195 81.877 21.91 81.9953 21.891C82.1137 21.8674 82.2084 21.8484 82.2794 21.8342L82.6203 23.3399C82.5067 23.3825 82.3481 23.4251 82.1445 23.4678C81.9409 23.5151 81.6828 23.5388 81.3703 23.5388C80.8969 23.5388 80.4328 23.437 79.9783 23.2334C79.5285 23.0298 79.1544 22.7196 78.8561 22.303C78.5626 21.8863 78.4158 21.3607 78.4158 20.7263V9.874Z" fill="black"/>
<g clip-path="url(#clip0_75609_16300)">
<path d="M102.182 15.1516C102.382 15.1513 102.576 15.2132 102.736 15.3282L110.305 20.7622C110.403 20.8329 110.487 20.9219 110.55 21.0239C110.613 21.1259 110.655 21.239 110.673 21.3568C110.709 21.5945 110.647 21.8367 110.501 22.0301C110.354 22.2235 110.134 22.3521 109.889 22.3878C109.644 22.4235 109.395 22.3632 109.196 22.2203L102.182 17.1893L95.1679 22.2203C95.0694 22.2911 94.9576 22.3423 94.8387 22.371C94.7199 22.3998 94.5964 22.4055 94.4753 22.3878C94.3542 22.3701 94.2379 22.3295 94.133 22.2681C94.028 22.2067 93.9366 22.1258 93.8638 22.0301C93.791 21.9344 93.7383 21.8256 93.7088 21.7101C93.6792 21.5946 93.6733 21.4745 93.6915 21.3567C93.7097 21.239 93.7515 21.1259 93.8146 21.0239C93.8778 20.9219 93.9609 20.8329 94.0594 20.7622L101.628 15.3282C101.788 15.2132 101.983 15.1513 102.182 15.1516Z" fill="#FF0000"/>
<path d="M102.182 10.3967C102.382 10.3964 102.576 10.4583 102.736 10.5733L110.305 16.0073C110.504 16.1502 110.636 16.3641 110.673 16.6019C110.709 16.8397 110.647 17.0819 110.501 17.2752C110.354 17.4686 110.134 17.5972 109.889 17.6329C109.644 17.6686 109.395 17.6083 109.196 17.4654L102.182 12.4345L95.1679 17.4654C94.969 17.6083 94.7199 17.6686 94.4753 17.6329C94.2308 17.5972 94.0108 17.4686 93.8638 17.2752C93.7168 17.0819 93.6548 16.8396 93.6915 16.6019C93.7282 16.3641 93.8605 16.1502 94.0594 16.0073L101.628 10.5733C101.788 10.4583 101.983 10.3964 102.182 10.3967Z" fill="#FF0000"/>
</g>
<defs>
<clipPath id="clip0_75609_16300">
<rect width="17" height="12" fill="white" transform="translate(110.682 22.3967) rotate(-180)"/>
</clipPath>
</defs>
</svg>
